<?xml version="1.0" standalone="no"?>
<svg xmlns="http://www.w3.org/2000/svg" viewBox="0 0 152.404 36" width="152.404" height="36"><g fill="#FF204B" color="#FF204B" transform="translate(0 4) scale(0.6666667)"><svg width="42.0" height="42.0" x="0.0" y="0.0" viewBox="0 0 42 42"><path fill="currentColor" fill-rule="nonzero" d="M21 41.41L41.41.59H.59L21 41.41zm0-7.61l-11.5-23h15.4l-1.7 3.4H15l6 12 9.4-18.8H7.8L6.1 4h29.8L21 33.8z"></path></svg></g><path fill="#000000" fill-rule="nonzero" d="M6.36 16.97L3.46 16.97Q3.36 16.97 3.34 16.85L3.34 16.85L0.02 0.36Q0 0.26 0.12 0.26L0.12 0.26L2.83 0.26Q2.93 0.26 2.95 0.36L2.95 0.36L4.92 11.35L6.84 0.36Q6.86 0.26 6.96 0.26L6.96 0.26L9.65 0.26Q9.77 0.26 9.74 0.36L9.74 0.36L6.48 16.85Q6.46 16.97 6.36 16.97L6.36 16.97ZM15.12 17.21L15.12 17.21Q13.82 17.21 12.76 16.55Q11.69 15.89 11.04 14.80Q10.39 13.70 10.39 12.38L10.39 12.38L10.42 4.78Q10.42 3.46 11.05 2.38Q11.69 1.30 12.77 0.65Q13.85 0 15.12 0L15.12 0Q16.42 0 17.47 0.65Q18.53 1.30 19.16 2.38Q19.80 3.46 19.80 4.78L19.80 4.78L19.82 12.38Q19.82 13.70 19.19 14.80Q18.55 15.89 17.48 16.55Q16.42 17.21 15.12 17.21ZM15.12 14.30L15.12 14.30Q15.84 14.30 16.38 13.72Q16.92 13.13 16.92 12.38L16.92 12.38L16.90 4.78Q16.90 3.98 16.39 3.43Q15.89 2.88 15.12 2.88L15.12 2.88Q14.38 2.88 13.85 3.42Q13.32 3.96 13.32 4.78L13.32 4.78L13.32 12.38Q13.32 13.18 13.85 13.74Q14.38 14.30 15.12 14.30ZM29.50 16.97L21.74 16.97Q21.65 16.97 21.65 16.85L21.65 16.85L21.67 0.38Q21.67 0.26 21.79 0.26L21.79 0.26L24.46 0.26Q24.58 0.26 24.58 0.38L24.58 0.38L24.55 14.02L29.50 14.02Q29.62 14.02 29.62 14.14L29.62 14.14L29.62 16.85Q29.62 16.97 29.50 16.97L29.50 16.97ZM33.89 16.97L31.18 16.97Q31.08 16.97 31.08 16.85L31.08 16.85L31.08 3.17L27.96 3.17Q27.84 3.17 27.84 3.05L27.84 3.05L27.86 0.36Q27.86 0.26 27.96 0.26L27.96 0.26L37.08 0.26Q37.20 0.26 37.20 0.36L37.20 0.36L37.20 3.05Q37.20 3.17 37.10 3.17L37.10 3.17L33.96 3.17L33.98 16.85Q33.98 16.97 33.89 16.97L33.89 16.97ZM42.58 17.21L42.58 17.21Q41.28 17.21 40.21 16.55Q39.14 15.89 38.50 14.80Q37.85 13.70 37.85 12.38L37.85 12.38L37.87 4.78Q37.87 3.46 38.51 2.38Q39.14 1.30 40.22 0.65Q41.30 0 42.58 0L42.58 0Q43.87 0 44.93 0.65Q45.98 1.30 46.62 2.38Q47.26 3.46 47.26 4.78L47.26 4.78L47.28 12.38Q47.28 13.70 46.64 14.80Q46.01 15.89 44.94 16.55Q43.87 17.21 42.58 17.21ZM42.58 14.30L42.58 14.30Q43.30 14.30 43.84 13.72Q44.38 13.13 44.38 12.38L44.38 12.38L44.35 4.78Q44.35 3.98 43.85 3.43Q43.34 2.88 42.58 2.88L42.58 2.88Q41.83 2.88 41.30 3.42Q40.78 3.96 40.78 4.78L40.78 4.78L40.78 12.38Q40.78 13.18 41.30 13.74Q41.83 14.30 42.58 14.30ZM52.39 16.85L52.39 16.85L55.37 0.36Q55.39 0.26 55.49 0.26L55.49 0.26L58.97 0.26Q59.06 0.26 59.09 0.36L59.09 0.36L61.94 16.85Q61.97 16.97 61.85 16.97L61.85 16.97L59.18 16.97Q59.09 16.97 59.06 16.85L59.06 16.85L58.80 15.10L55.54 15.10L55.27 16.85Q55.25 16.97 55.15 16.97L55.15 16.97L52.49 16.97Q52.39 16.97 52.39 16.85ZM57.10 5.78L56.02 12.53L58.32 12.53L57.34 5.78L57.19 4.90L57.10 5.78ZM67.87 16.94L63.58 16.97Q63.46 16.97 63.46 16.85L63.46 16.85L63.50 0.36Q63.50 0.26 63.60 0.26L63.60 0.26L68.09 0.24Q69.41 0.22 70.50 0.86Q71.59 1.51 72.24 2.60Q72.89 3.70 72.89 5.02L72.89 5.02L72.89 11.90Q72.89 13.30 72.22 14.44Q71.54 15.58 70.42 16.25Q69.29 16.92 67.87 16.94L67.87 16.94ZM66.41 3.14L66.38 14.02L67.87 14.02Q68.76 14.02 69.37 13.39Q69.98 12.77 69.98 11.90L69.98 11.90L69.98 4.99Q69.98 4.22 69.42 3.66Q68.86 3.10 68.09 3.12L68.09 3.12L66.41 3.14ZM79.20 16.94L74.90 16.97Q74.78 16.97 74.78 16.85L74.78 16.85L74.83 0.36Q74.83 0.26 74.93 0.26L74.93 0.26L79.42 0.24Q80.74 0.22 81.83 0.86Q82.92 1.51 83.57 2.60Q84.22 3.70 84.22 5.02L84.22 5.02L84.22 11.90Q84.22 13.30 83.54 14.44Q82.87 15.58 81.74 16.25Q80.62 16.92 79.20 16.94L79.20 16.94ZM77.74 3.14L77.71 14.02L79.20 14.02Q80.09 14.02 80.70 13.39Q81.31 12.77 81.31 11.90L81.31 11.90L81.31 4.99Q81.31 4.22 80.75 3.66Q80.18 3.10 79.42 3.12L79.42 3.12L77.74 3.14ZM89.98 17.21L89.98 17.21Q88.68 17.21 87.61 16.55Q86.54 15.89 85.90 14.80Q85.25 13.70 85.25 12.38L85.25 12.38L85.27 4.78Q85.27 3.46 85.91 2.38Q86.54 1.30 87.62 0.65Q88.70 0 89.98 0L89.98 0Q91.27 0 92.33 0.65Q93.38 1.30 94.02 2.38Q94.66 3.46 94.66 4.78L94.66 4.78L94.68 12.38Q94.68 13.70 94.04 14.80Q93.41 15.89 92.34 16.55Q91.27 17.21 89.98 17.21ZM89.98 14.30L89.98 14.30Q90.70 14.30 91.24 13.72Q91.78 13.13 91.78 12.38L91.78 12.38L91.75 4.78Q91.75 3.98 91.25 3.43Q90.74 2.88 89.98 2.88L89.98 2.88Q89.23 2.88 88.70 3.42Q88.18 3.96 88.18 4.78L88.18 4.78L88.18 12.38Q88.18 13.18 88.70 13.74Q89.23 14.30 89.98 14.30ZM99.12 16.97L96.72 16.97Q96.53 16.97 96.53 16.80L96.53 16.80L96.50 0.46Q96.50 0.26 96.70 0.26L96.70 0.26L98.86 0.26L102.91 9.72L102.79 0.46Q102.79 0.26 103.01 0.26L103.01 0.26L105.38 0.26Q105.53 0.26 105.53 0.46L105.53 0.46L105.55 16.82Q105.55 16.97 105.43 16.97L105.43 16.97L103.32 16.97L99.17 8.14L99.34 16.78Q99.34 16.97 99.12 16.97L99.12 16.97ZM111.72 17.21L111.72 17.21Q110.42 17.21 109.36 16.55Q108.29 15.89 107.65 14.80Q107.02 13.70 107.02 12.38L107.02 12.38L107.02 11.28Q107.02 11.16 107.14 11.16L107.14 11.16L109.82 11.16Q109.92 11.16 109.92 11.28L109.92 11.28L109.92 12.38Q109.92 13.18 110.45 13.74Q110.98 14.30 111.72 14.30L111.72 14.30Q112.46 14.30 112.99 13.73Q113.52 13.15 113.52 12.38L113.52 12.38Q113.52 11.50 112.37 10.85L112.37 10.85Q111.98 10.63 111.17 10.18Q110.35 9.72 109.63 9.31L109.63 9.31Q108.31 8.54 107.68 7.38Q107.04 6.22 107.04 4.75L107.04 4.75Q107.04 3.41 107.69 2.34Q108.34 1.27 109.40 0.65Q110.47 0.02 111.72 0.02L111.72 0.02Q112.99 0.02 114.06 0.66Q115.13 1.30 115.76 2.36Q116.40 3.43 116.40 4.75L116.40 4.75L116.40 6.72Q116.40 6.82 116.30 6.82L116.30 6.82L113.62 6.82Q113.52 6.82 113.52 6.72L113.52 6.72L113.50 4.75Q113.50 3.91 112.97 3.38Q112.44 2.86 111.72 2.86L111.72 2.86Q110.98 2.86 110.45 3.42Q109.92 3.98 109.92 4.75L109.92 4.75Q109.92 5.54 110.26 6.07Q110.59 6.60 111.48 7.08L111.48 7.08Q111.60 7.15 111.95 7.33Q112.30 7.51 112.70 7.74Q113.11 7.97 113.44 8.14Q113.76 8.30 113.83 8.35L113.83 8.35Q115.03 9.02 115.73 10.00Q116.42 10.97 116.42 12.38L116.42 12.38Q116.42 13.75 115.79 14.84Q115.15 15.94 114.08 16.57Q113.02 17.21 111.72 17.21Z" transform="translate(36, 9.516)"></path></svg>